<svg width="95" height="24" viewBox="0 0 95 24" fill="none" xmlns="http://www.w3.org/2000/svg">
<g clip-path="url(#clip0_417_4912)">
<path d="M16.2069 15.34C15.4441 14.3091 14.3045 13.6303 12.785 13.3004C11.4162 13.0149 10.06 12.7389 8.71317 12.4756C7.25648 12.0601 6.53127 11.5113 6.53127 10.8293C6.53127 9.97605 7.3224 9.54781 8.90781 9.54781C10.4932 9.54781 11.3848 10.1822 11.3848 11.4574H16.4989C16.3482 7.76827 13.7519 5.92529 8.71317 5.92529C6.66941 5.92529 4.9647 6.28691 3.59592 7.01332C1.85983 7.91102 0.990208 9.29405 0.990208 11.1592C0.990208 12.5645 1.41403 13.662 2.26167 14.4519C2.91467 15.0672 3.913 15.5589 5.25981 15.9332C6.45279 16.2187 7.6489 16.4915 8.84188 16.7548C9.75545 16.999 10.33 17.164 10.5686 17.2496C11.2216 17.5573 11.5481 17.9951 11.5481 18.5661C11.5481 19.1814 11.2435 19.6541 10.6345 19.9808C10.1573 20.2441 9.5922 20.3773 8.9392 20.3773C8.0947 20.3773 7.41031 20.1806 6.88917 19.7841C6.28012 19.3242 5.9756 18.6866 5.9756 17.8745H0.698242C0.76417 20.0696 1.66518 21.6842 3.40128 22.7151C4.79204 23.5716 6.64743 23.9998 8.97374 23.9998C11.3 23.9998 13.0142 23.5589 14.4457 22.6802C16.2069 21.6081 17.086 20.0157 17.086 17.9094C17.086 16.9864 16.794 16.1299 16.2069 15.34Z" fill="white"/>
<path d="M27.9984 5.92545C26.9561 5.92545 25.9578 6.17922 25.0034 6.68358C23.9799 7.21015 23.2641 7.90166 22.8529 8.75813H22.7869V0H17.249V23.5051H22.7869V14.1887C22.7869 13.1578 23.0255 12.3109 23.5027 11.6542C24.0459 10.9088 24.8056 10.5345 25.7851 10.5345C27.1099 10.5345 27.945 11.0293 28.2935 12.0159C28.4661 12.4758 28.5541 13.5511 28.5541 15.2419V23.5051H29.7282C31.1441 22.6614 32.6008 21.8842 34.092 21.1705V12.5424C34.092 8.13323 32.0608 5.92545 27.9984 5.92545ZM29.8977 23.5051H34.092V21.586C32.673 22.1729 31.2791 22.82 29.8977 23.5051Z" fill="white"/>
<path d="M49.2368 17.2087C47.8398 17.4624 46.449 17.7479 45.0677 18.0683C44.9358 18.2682 44.7852 18.4426 44.6156 18.6012C44.0725 19.1278 43.4195 19.3911 42.6598 19.3911C42.0758 19.3911 41.5861 19.2864 41.1905 19.077C39.2566 19.6417 37.3479 20.2951 35.4674 21.0342C35.3701 21.0723 35.2696 21.1103 35.1723 21.1516C35.323 21.4751 35.4956 21.7638 35.6903 22.0239C36.6886 23.3403 38.3399 24.0001 40.6411 24.0001C41.6395 24.0001 42.6158 23.74 43.5733 23.2261C44.5277 22.7091 45.2686 22.0239 45.7898 21.1674H45.8526V23.5053H51.2304V16.8471C50.5648 16.9676 49.9024 17.0881 49.2368 17.2087ZM45.6893 6.42041V15.5719C45.6893 16.1524 45.6265 16.6694 45.4915 17.1199C46.6814 16.8312 47.8743 16.5711 49.0705 16.3268C49.7172 16.2 50.4518 16.0667 51.2304 15.9303V6.42041H45.6893ZM39.9253 16.33V6.42041H34.3843V16.6916C34.3843 18.3316 34.5883 19.6829 34.9965 20.7456C36.8048 19.9113 38.657 19.1785 40.5469 18.5473C40.1294 18.0366 39.9253 17.3007 39.9253 16.33Z" fill="white"/>
<path d="M68.2957 23.5053C67.9912 16.8915 67.4983 15.7178 62.8582 15.2578V15.5719C62.8582 16.9327 62.5004 17.9414 61.7846 18.6012C61.2415 19.1278 60.5885 19.3911 59.8287 19.3911C58.0047 19.3911 57.0943 18.3697 57.0943 16.33V15.9113C56.8306 15.9462 56.57 15.9779 56.3063 16.0191C54.7209 16.2444 53.1355 16.5108 51.5532 16.79C51.5658 19.1341 52.0022 20.8756 52.8592 22.0239C53.8575 23.3403 55.5057 24.0001 57.8101 24.0001C58.8084 24.0001 59.7848 23.74 60.7423 23.2261C61.6967 22.7091 62.4376 22.0239 62.9587 21.1674H63.0215V23.5053H68.2957ZM62.8582 6.42041V14.8835C67.5485 14.4172 68.0006 13.2245 68.3051 6.42041H62.8582ZM68.393 6.42041C68.393 6.48068 68.3993 6.53778 68.3993 6.59488V6.42041H68.393ZM51.5532 6.42041V15.8764C53.4243 15.5528 55.49 15.2293 57.0943 14.9882V6.42041H51.5532Z" fill="white"/>
<path d="M93.907 8.39635C92.9746 6.75003 91.3138 5.92529 88.9248 5.92529C86.7743 5.92529 85.013 6.84837 83.6443 8.69135C82.8406 6.84837 81.2018 5.92529 78.7248 5.92529C76.5963 5.92529 74.9795 6.87057 73.8713 8.75797H73.8053V6.42014H68.4307V7.20999C68.7415 13.3797 69.3505 14.4582 73.9717 14.8959C73.9937 13.3321 74.2103 12.2251 74.6216 11.5716C75.0548 10.8801 75.7832 10.5343 76.8035 10.5343C78.1942 10.5343 78.888 11.6224 78.888 13.7921V23.505H84.426V15.1434C84.426 13.5415 84.5672 12.4217 84.8498 11.7841C85.2202 10.953 85.9486 10.5343 87.0348 10.5343C88.5763 10.5343 89.3486 11.5113 89.3486 13.4653V23.505H94.8865V13.3004C94.8865 11.1497 94.56 9.51292 93.907 8.39635ZM68.4307 22.9308V23.505H73.9686V15.2449C69.3505 15.6826 68.7415 16.7643 68.4307 22.9308Z" fill="white"/>
</g>
<defs>
<clipPath id="clip0_417_4912">
<rect width="94.1887" height="24" fill="white" transform="translate(0.698242)"/>
</clipPath>
</defs>
</svg>
